<svg xmlns="http://www.w3.org/2000/svg" xmlns:svg="http://www.w3.org/2000/svg" id="Layer_1" width="512" height="512" x="0" style="enable-background:new 0 0 512 512" y="0" version="1.1" viewBox="0 0 512 512" xml:space="preserve"><metadata id="metadata74"/><path id="path67" d="M 410.51021,362.63823 299.22773,250.93165 410.76466,140.66698 c 4.58023,-4.58022 4.58023,-12.04428 0,-16.62451 L 379.04237,92.150537 c -2.20529,-2.205293 -5.17396,-3.392758 -8.31226,-3.392758 -3.1383,0 -6.10696,1.272284 -8.31226,3.392758 L 251.38982,202.07593 140.19216,92.235357 c -2.2053,-2.205294 -5.17396,-3.392759 -8.31226,-3.392759 -3.1383,0 -6.10697,1.272285 -8.31226,3.392759 L 91.930163,124.12729 c -4.580224,4.58022 -4.580224,12.04429 0,16.62451 L 203.4671,251.01646 92.269439,362.63823 c -2.205293,2.20529 -3.477577,5.17396 -3.477577,8.31226 0,3.1383 1.187465,6.10696 3.477577,8.31225 l 31.722291,31.89194 c 2.29011,2.29011 5.25878,3.47757 8.31226,3.47757 2.96867,0 6.02215,-1.10264 8.31226,-3.47757 L 251.38982,299.8722 362.24821,411.06986 c 2.29011,2.29011 5.25879,3.47757 8.31227,3.47757 2.96866,0 6.02214,-1.10264 8.31226,-3.47757 l 31.72229,-31.89194 c 2.2053,-2.20528 3.47757,-5.17396 3.47757,-8.31226 -0.0848,-3.05347 -1.35709,-6.02214 -3.56239,-8.22743 z" style="fill:#fff;fill-opacity:1;stroke-width:.84818965"/></svg>